<svg width="40" height="41" viewBox="0 0 40 41" fill="none" xmlns="http://www.w3.org/2000/svg">
<path fill-rule="evenodd" clip-rule="evenodd" d="M20 38.4297C29.9411 38.4297 38 30.3708 38 20.4297C38 10.4886 29.9411 2.42969 20 2.42969C10.0589 2.42969 2 10.4886 2 20.4297C2 30.3708 10.0589 38.4297 20 38.4297ZM20 40.4297C31.0457 40.4297 40 31.4754 40 20.4297C40 9.38399 31.0457 0.429688 20 0.429688C8.9543 0.429688 0 9.38399 0 20.4297C0 31.4754 8.9543 40.4297 20 40.4297Z" fill="#16171D"/>
<path d="M11.9178 14.5894H9.53603C9.50747 15.3023 8.5022 16.5171 7 16.5171V18.4791C8.29086 18.4791 9.13049 18 9.38181 17.6122H9.49033V26.27H11.9178V14.5894Z" fill="#16171D"/>
<path d="M19.0647 26.4297C21.6921 26.4297 23.5941 25.0209 23.6056 23.1274C23.5941 21.6673 22.4746 20.4753 21.0695 20.2415V20.1616C22.2918 19.9107 23.16 18.8498 23.1715 17.5723C23.16 15.7643 21.4237 14.4297 19.0647 14.4297C16.6886 14.4297 14.9522 15.7643 14.9636 17.5723C14.9522 18.8498 15.8204 19.9107 17.0656 20.1616V20.2415C15.6376 20.4753 14.5181 21.6673 14.5295 23.1274C14.5181 25.0209 16.4144 26.4297 19.0647 26.4297ZM19.0647 24.616C17.8824 24.616 17.0884 23.9259 17.0998 22.9335C17.0884 21.924 17.9223 21.1939 19.0647 21.1939C20.1899 21.1939 21.0181 21.924 21.0295 22.9335C21.0181 23.9259 20.2299 24.616 19.0647 24.616ZM19.0647 19.3974C18.0708 19.3974 17.3626 18.7529 17.374 17.8289C17.3626 16.9221 18.0594 16.289 19.0647 16.289C20.0528 16.289 20.744 16.9221 20.7554 17.8289C20.744 18.7529 20.0414 19.3974 19.0647 19.3974Z" fill="#16171D"/>
<path d="M33 19.4886H30.1898V16.7795H28.2764V19.4886H25.4662V21.3708H28.2764V24.0799H30.1898V21.3708H33V19.4886Z" fill="#16171D"/>
</svg>
