<svg width="108" height="36" viewBox="0 0 108 36" fill="none" xmlns="http://www.w3.org/2000/svg">
<path d="M24.0734 11.4224H16.752V24.5791H24.0734V11.4224Z" fill="#FF5F00"/>
<path d="M17.2153 17.9999C17.2142 16.7328 17.5013 15.4821 18.055 14.3423C18.6087 13.2026 19.4144 12.2038 20.4111 11.4215C19.1768 10.4513 17.6944 9.84791 16.1333 9.68036C14.5723 9.51281 12.9956 9.78783 11.5834 10.474C10.1713 11.1602 8.98069 12.2298 8.14773 13.5607C7.31477 14.8915 6.87305 16.4299 6.87305 17.9999C6.87305 19.5699 7.31477 21.1083 8.14773 22.4391C8.98069 23.77 10.1713 24.8396 11.5834 25.5258C12.9956 26.212 14.5723 26.487 16.1333 26.3194C17.6944 26.1519 19.1768 25.5485 20.4111 24.5783C19.4144 23.796 18.6087 22.7972 18.055 21.6575C17.5013 20.5177 17.2142 19.267 17.2153 17.9999Z" fill="#EB001B"/>
<path d="M33.9498 18.0001C33.9499 19.5701 33.5082 21.1085 32.6753 22.4393C31.8423 23.7702 30.6518 24.8398 29.2397 25.526C27.8276 26.2122 26.2509 26.4872 24.6899 26.3197C23.1288 26.1521 21.6464 25.5488 20.4121 24.5785C21.408 23.7954 22.2131 22.7965 22.7667 21.6569C23.3203 20.5174 23.6079 19.267 23.6079 18.0001C23.6079 16.7332 23.3203 15.4829 22.7667 14.3433C22.2131 13.2038 21.408 12.2048 20.4121 11.4217C21.6464 10.4515 23.1288 9.84815 24.6899 9.6806C26.2509 9.51305 27.8276 9.78809 29.2397 10.4743C30.6518 11.1605 31.8423 12.2301 32.6753 13.561C33.5082 14.8918 33.9499 16.4301 33.9498 18.0001Z" fill="#F79E1B"/>
<path d="M48.5762 20.9847V17.47C48.5762 16.1255 47.7572 15.2451 46.3513 15.2451C45.6483 15.2451 44.884 15.4771 44.3585 16.2415C43.949 15.6 43.362 15.2451 42.4816 15.2451C41.8947 15.2451 41.3078 15.4225 40.8437 16.0641V15.3611H39.6152V20.9847H40.8437V17.8794C40.8437 16.883 41.3692 16.4121 42.1882 16.4121C43.0071 16.4121 43.4166 16.9376 43.4166 17.8794V20.9847H44.6451V17.8794C44.6451 16.883 45.232 16.4121 45.9896 16.4121C46.8085 16.4121 47.218 16.9376 47.218 17.8794V20.9847H48.5762ZM66.7983 15.3611H64.8055V13.6617H63.577V15.3611H62.4646V16.4735H63.577V19.0533C63.577 20.3432 64.1025 21.1007 65.5084 21.1007C66.0339 21.1007 66.6209 20.9233 67.0304 20.6913L66.6755 19.6334C66.3206 19.8655 65.9111 19.9269 65.6176 19.9269C65.0307 19.9269 64.7987 19.572 64.7987 18.9919V16.4735H66.7915V15.3611H66.7983ZM77.2266 15.2383C76.5236 15.2383 76.0527 15.5931 75.7592 16.0572V15.3543H74.5308V20.9779H75.7592V17.8112C75.7592 16.8762 76.1687 16.3439 76.9331 16.3439C77.1651 16.3439 77.4586 16.4053 77.6975 16.4599L78.0524 15.286C77.8067 15.2383 77.4586 15.2383 77.2266 15.2383ZM61.4682 15.8252C60.8812 15.4157 60.0623 15.2383 59.1819 15.2383C57.776 15.2383 56.841 15.9412 56.841 17.0537C56.841 17.9886 57.5439 18.521 58.7724 18.6916L59.3593 18.753C60.0008 18.869 60.3557 19.0465 60.3557 19.34C60.3557 19.7494 59.8848 20.0429 59.0658 20.0429C58.2469 20.0429 57.5985 19.7494 57.189 19.456L56.6021 20.391C57.2436 20.8619 58.124 21.0939 59.0044 21.0939C60.6424 21.0939 61.5842 20.3295 61.5842 19.2785C61.5842 18.2821 60.8198 17.7566 59.6528 17.5792L59.0658 17.5177C58.5403 17.4563 58.1308 17.3403 58.1308 16.9922C58.1308 16.5827 58.5403 16.3507 59.1887 16.3507C59.8916 16.3507 60.5946 16.6442 60.9495 16.8216L61.4682 15.8252ZM94.152 15.2383C93.4491 15.2383 92.9781 15.5931 92.6847 16.0572V15.3543H91.4562V20.9779H92.6847V17.8112C92.6847 16.8762 93.0942 16.3439 93.8585 16.3439C94.0906 16.3439 94.384 16.4053 94.6229 16.4599L94.9778 15.2997C94.7389 15.2383 94.3909 15.2383 94.152 15.2383ZM78.455 18.1729C78.455 19.8723 79.6289 21.1007 81.4443 21.1007C82.2633 21.1007 82.8502 20.9233 83.4371 20.4592L82.8502 19.4628C82.3793 19.8177 81.9152 19.9883 81.3829 19.9883C80.3864 19.9883 79.6835 19.2854 79.6835 18.1729C79.6835 17.1151 80.3864 16.4121 81.3829 16.3575C81.9084 16.3575 82.3793 16.535 82.8502 16.883L83.4371 15.8866C82.8502 15.4157 82.2633 15.2451 81.4443 15.2451C79.6289 15.2383 78.455 16.4735 78.455 18.1729ZM89.8183 18.1729V15.3611H88.5898V16.0641C88.1803 15.5386 87.5934 15.2451 86.829 15.2451C85.2457 15.2451 84.0172 16.4735 84.0172 18.1729C84.0172 19.8723 85.2457 21.1007 86.829 21.1007C87.648 21.1007 88.2349 20.8073 88.5898 20.2818V20.9847H89.8183V18.1729ZM85.3071 18.1729C85.3071 17.1765 85.9486 16.3575 87.0065 16.3575C88.0029 16.3575 88.7058 17.1219 88.7058 18.1729C88.7058 19.1693 88.0029 19.9883 87.0065 19.9883C85.9555 19.9269 85.3071 19.1625 85.3071 18.1729ZM70.6065 15.2383C68.9686 15.2383 67.7947 16.4121 67.7947 18.1661C67.7947 19.9269 68.9686 21.0939 70.668 21.0939C71.4869 21.0939 72.3059 20.8619 72.9543 20.3295L72.3673 19.4491C71.8964 19.804 71.3095 20.0361 70.7294 20.0361C69.965 20.0361 69.2075 19.6812 69.03 18.6916H73.1863C73.1863 18.5142 73.1863 18.3981 73.1863 18.2207C73.2409 16.4121 72.1831 15.2383 70.6065 15.2383ZM70.6065 16.2961C71.3709 16.2961 71.8964 16.767 72.0124 17.6406H69.0846C69.2006 16.883 69.7261 16.2961 70.6065 16.2961ZM101.127 18.1729V13.1362H99.8985V16.0641C99.489 15.5386 98.9021 15.2451 98.1377 15.2451C96.5543 15.2451 95.3259 16.4735 95.3259 18.1729C95.3259 19.8723 96.5543 21.1007 98.1377 21.1007C98.9566 21.1007 99.5436 20.8073 99.8985 20.2818V20.9847H101.127V18.1729ZM96.6157 18.1729C96.6157 17.1765 97.2573 16.3575 98.3151 16.3575C99.3115 16.3575 100.014 17.1219 100.014 18.1729C100.014 19.1693 99.3115 19.9883 98.3151 19.9883C97.2573 19.9269 96.6157 19.1625 96.6157 18.1729ZM55.4897 18.1729V15.3611H54.2612V16.0641C53.8517 15.5386 53.2648 15.2451 52.5004 15.2451C50.9171 15.2451 49.6886 16.4735 49.6886 18.1729C49.6886 19.8723 50.9171 21.1007 52.5004 21.1007C53.3194 21.1007 53.9063 20.8073 54.2612 20.2818V20.9847H55.4897V18.1729ZM50.9239 18.1729C50.9239 17.1765 51.5654 16.3575 52.6233 16.3575C53.6197 16.3575 54.3226 17.1219 54.3226 18.1729C54.3226 19.1693 53.6197 19.9883 52.6233 19.9883C51.5654 19.9269 50.9239 19.1625 50.9239 18.1729Z" fill="black"/>
</svg>
